<svg width="660" height="1020" viewBox="0 0 660 1020" fill="none" xmlns="http://www.w3.org/2000/svg">
<path d="M44.2014 938.428C44.2014 938.428 43.2531 959.04 46.2167 962.427C49.1801 965.813 58.5448 966.402 83.2011 966.696C107.857 966.991 138.45 967.112 152.106 967.579C165.763 968.046 182.044 967.649 182.044 967.649C182.044 967.649 189.086 965.299 190.767 965.952C192.448 966.605 194.025 969.085 196.442 969.346C198.859 969.607 205.69 969.476 208.948 966.996C212.206 964.516 211.575 968.04 213.362 968.693C215.148 969.346 223.766 969.737 226.499 965.691C229.231 961.644 225.237 961.905 228.495 961.514C231.754 961.122 233.367 959.902 236.971 964.815C240.576 969.729 241.191 967.436 244.092 967.326C246.993 967.217 248.223 968.746 252.442 965.361C255.783 965.689 256.487 965.907 259.124 962.413C263.255 962.85 265.903 962.766 265.903 962.766L267.6 960.55L272.917 960.627C272.917 960.627 273.844 962.93 276.564 963.621C279.285 964.312 282.808 962.546 284.662 963.698C286.516 964.85 288.434 968.842 290.473 969.534C292.513 970.225 306.661 968.075 313.574 968.612C320.486 969.148 328.457 970.939 339.164 970.773C349.871 970.607 358.035 972.103 366.333 971.604C374.632 971.105 392.182 973.082 404.443 972.177C416.702 971.273 470.626 971.391 485.072 970.765C499.518 970.14 546.524 972.268 563.682 972.694C580.841 973.12 580.051 975.39 585.8 975.525C591.547 975.659 605.43 972.292 608.141 969.732C610.852 967.173 609.551 967.577 612.046 969.328C614.54 971.079 614.865 972.022 618.335 967.442C621.806 962.862 619.459 960.664 620.211 951.17C620.962 941.677 620.962 932.806 620.962 932.806L630.986 941.833C630.986 941.833 636.749 942.144 639.883 943.078C643.014 944.011 644.519 944.167 644.519 944.167C644.519 944.167 640.759 938.876 636.875 938.876C632.991 938.876 631.738 937.631 631.738 937.631L624.095 925.336L620.711 928.138C620.711 928.138 619.709 920.2 620.587 916.465C621.463 912.73 620.696 912.58 620.696 902.937C620.696 893.295 620.218 859.957 620.439 849.258C620.659 838.559 619.715 832.462 619.847 828.699C619.978 824.935 622.35 821.499 622.35 821.499C622.35 821.499 618.002 805.461 618.793 798.423C619.583 791.388 621.149 787.263 621.149 787.263L621.331 734.14L618.189 731.341L620.778 728.535L621.053 720.734L616.7 723.676C616.7 723.676 620.168 716.935 620.295 711.389C620.423 705.843 621.803 675.8 621.54 672.211C621.277 668.621 619.044 665.359 619.044 665.359L621.935 661.932L621.805 635.986L618.168 635.443C618.168 635.443 616.277 626.951 613.949 620.989C617.586 614.845 620.787 613.399 620.933 609.063C621.078 604.727 619.622 592.982 619.622 592.982L620.912 580.135L614.804 574.556L618.756 571.878L616.241 565.184C616.241 565.184 621.99 557.151 621.99 551.795C621.99 546.44 619.654 544.656 619.654 544.656C619.654 544.656 621.092 528.366 619.654 523.679C618.217 518.994 614.984 516.762 614.984 516.762L617.066 510.646L610.989 509.515L610.278 505.339C610.278 505.339 615.407 507.432 617.551 502.678C619.694 497.923 618.904 480.27 618.904 480.27L621.284 459.119C621.284 459.119 620.469 431.569 620.865 425.172C621.262 418.774 622.846 416.314 622.846 416.314L620.271 398.599L622.252 389.249L625.306 380.56L620.717 389.002L616.469 371.8L616.058 367.922C616.058 367.922 619.934 362.808 620.054 358.897C620.176 354.987 618.359 350.473 618.359 346.713C618.359 342.953 618.612 331.278 618.612 326.393C618.612 321.509 620.859 316.973 620.859 316.973L618.33 313.833L619.454 304.935L618.19 295.341L620.578 290.805C620.578 290.805 620.811 285.194 618.317 281.882C615.822 278.571 613.93 277.396 613.93 277.396C613.93 277.396 616.166 271.733 615.22 269.276C614.274 266.818 613.242 263.507 613.242 263.507L608.633 257.037L609.43 243.18L606.242 240.408C606.242 240.408 607.438 236.845 606.879 234.766C606.322 232.688 604.489 232.291 604.489 232.291C604.489 232.291 606.546 227.208 603.821 225.985C601.094 224.763 590.72 224.669 590.72 224.669C590.72 224.669 592.007 211.124 596.021 207.173C600.034 203.223 611.391 204.991 614.206 203.134C617.02 201.276 619.044 195.376 619.044 195.376H611.743C611.743 195.376 612.711 188.055 612.359 184.559C612.007 181.063 611.603 178.626 613.148 175.556C614.694 172.485 617.99 165.192 617.99 165.192C617.99 165.192 616.032 157.388 618.711 154.445C621.389 151.503 626.643 152.782 627.364 149.583C628.085 146.385 626.365 143.885 628.39 140.812C630.415 137.738 634.8 132.848 634.8 132.848C634.8 132.848 630.077 132.57 627.94 136.341C625.803 140.113 627.265 147.237 625.128 148.774C622.991 150.31 619.28 146.958 616.918 151.708C614.556 156.457 618.268 162.604 615.118 163.582C611.969 164.56 613.991 159.882 611.066 158.344C608.142 156.808 604.543 154.573 604.543 154.712C604.543 154.852 605.217 146.051 605.217 146.051C605.217 146.051 611.629 147.029 612.528 141.859C613.428 136.689 612.079 121.462 611.178 117.689C610.279 113.918 612.528 107.491 613.09 105.674C613.653 103.858 602.955 101.676 602.955 101.676L606.549 95.227L605.884 90.4312L604.286 80.1783L602.955 68.9336C602.955 68.9336 615.625 58.75 615.779 54.3591C615.933 49.967 613.32 39.6571 606.248 39.4664C599.178 39.2757 598.255 42.1398 598.255 42.1398C598.255 42.1398 602.098 50.9217 597.948 48.2495C593.797 45.576 596.872 39.4664 596.872 39.4664C596.872 39.4664 583.344 39.6571 579.04 40.0397C574.736 40.4211 571.193 40.3134 564.948 39.293C558.703 38.2727 555.909 35.6191 553.608 38.2727C551.308 40.9263 553.937 46.4379 550.65 49.4989C547.363 52.5611 549.828 45.2132 545.555 39.7017C541.282 34.1901 539.967 38.8844 534.873 39.293C529.779 39.7017 529.121 40.1091 523.862 38.2727C518.603 36.4351 429.719 35.5609 418.078 37.1372C406.438 38.7148 384.24 39.932 379.411 39.932C374.582 39.932 376.051 36.8029 368.073 36.5416C360.093 36.2803 352.744 37.8455 352.744 37.8455C352.744 37.8455 350.912 41.0836 348.712 39.3017C346.513 37.5199 346.991 37.0444 342.017 37.2821C337.044 37.5199 331.402 36.3311 329.871 37.1632C328.341 37.9953 326.715 39.6571 326.906 42.8655C327.098 46.0726 328.819 48.9231 325.089 50.1118C321.359 51.2993 320.757 48.2532 318.028 48.8983C315.3 49.5447 313.48 57.7755 310.491 54.0632C307.502 50.3521 310.362 48.0922 310.491 44.864C310.622 41.6359 313.48 39.0528 310.362 39.0528C307.243 39.0528 304.644 43.0883 304.644 43.0883L302.825 37.7625C302.825 37.7625 233.481 37.9594 220.852 38.8002C208.222 39.6398 129.328 41.4377 103.574 38.773C77.8206 36.107 49.6779 33.7493 43.8065 39.2807C37.9351 44.8133 40.3647 50.0945 40.3647 50.0945C40.3647 50.0945 36.3155 44.5619 33.6835 52.6095C31.0515 60.6558 45.8311 65.4343 45.8311 65.4343C45.8311 65.4343 41.5438 113.609 40.0088 140.301C38.4738 166.994 44.614 207.509 44.614 207.509L46.341 213.675L40.4077 214.728L42.1029 229.046L52.7828 230.52C52.7828 230.52 48.8838 223.151 52.1047 221.467C55.3257 219.781 58.5467 227.993 60.7504 234.731C62.9542 241.47 55.6648 246.311 55.6648 246.311L57.6991 254.523C57.6991 254.523 50.0705 253.681 47.8666 251.154C45.6629 248.628 46.8495 259.998 46.8495 259.998L53.6305 264.209L50.0705 275.368C50.0705 275.368 55.8645 280.814 53.9313 285.883C51.9981 290.952 44.6948 299.756 44.6948 299.756C44.6948 299.756 42.4969 325.396 43.3553 329.424C44.2138 333.452 47.8384 336.176 47.8384 336.176C47.8384 336.176 43.8322 338.31 43.0692 343.285C42.3061 348.261 42.9298 365.954 45.5487 368.846C48.1676 371.737 51.223 370.473 51.223 370.473L56.7518 390.351C56.7518 390.351 49.6226 392.7 46.5672 399.567C43.5118 406.433 49.3316 409.144 49.3316 409.144L44.9668 415.108L49.4638 423.602L50.365 434.796C50.365 434.796 43.696 436.362 43.5157 443.527C43.3355 450.691 51.0859 455.392 53.4292 461.66C55.7723 467.929 58.476 472.406 53.9698 476.66C49.4638 480.913 46.0391 478.674 46.0391 478.674L47.0069 495.39C47.0069 495.39 60.2376 497.697 59.0769 507.499C57.9164 517.301 43.7573 515.283 43.7573 515.283C43.7573 515.283 47.0069 563.141 46.0784 569.194C45.1499 575.25 44.2018 593.889 43.5448 609.395C42.8877 624.902 44.5304 669.379 44.2018 676.725C43.8733 684.069 45.3822 692.429 45.3822 692.429L55.5535 697.32C55.5535 697.32 55.5535 702.617 52.6005 715.657C49.6476 728.699 52.6005 738.886 52.6005 738.886C52.6005 738.886 47.679 739.702 44.3979 751.113C41.1169 762.523 44.726 804.09 44.726 804.09L49.7168 809.216C49.7168 809.216 43.88 816.186 43.2066 826.504C42.533 836.821 45.4514 862.194 45.4514 862.194C45.4514 862.194 43.2503 890.94 43.2503 901.238C43.2503 911.536 46.4597 963.024 46.4597 963.024" fill="#F0F0F0"/>
</svg>
