<svg width="785" height="862" viewBox="0 0 785 862" fill="none" xmlns="http://www.w3.org/2000/svg">
<path d="M52.5729 793.064C52.5729 793.064 51.445 810.483 54.9698 813.345C58.4946 816.207 69.6328 816.704 98.9588 816.953C128.285 817.202 164.672 817.305 180.914 817.699C197.157 818.094 216.522 817.758 216.522 817.758C216.522 817.758 224.897 815.773 226.897 816.324C228.897 816.876 230.772 818.972 233.647 819.192C236.522 819.413 244.646 819.303 248.522 817.207C252.397 815.111 251.646 818.089 253.771 818.641C255.896 819.192 266.146 819.523 269.396 816.103C272.646 812.684 267.896 812.904 271.771 812.574C275.646 812.243 277.565 811.211 281.851 815.364C286.139 819.516 286.871 817.578 290.321 817.486C293.772 817.393 295.235 818.685 300.253 815.825C304.227 816.102 305.064 816.286 308.201 813.334C313.114 813.703 316.264 813.631 316.264 813.631L318.282 811.759L324.606 811.824C324.606 811.824 325.709 813.771 328.943 814.355C332.179 814.939 336.37 813.446 338.575 814.419C340.781 815.393 343.061 818.767 345.487 819.351C347.913 819.935 364.741 818.119 372.963 818.572C381.184 819.025 390.664 820.539 403.4 820.398C416.135 820.258 425.845 821.522 435.714 821.101C445.585 820.679 466.459 822.35 481.042 821.585C495.623 820.821 559.76 820.921 576.942 820.392C594.124 819.863 650.033 821.662 670.44 822.022C690.849 822.382 689.909 824.3 696.747 824.414C703.583 824.528 720.095 821.682 723.319 819.519C726.544 817.356 724.997 817.698 727.963 819.177C730.93 820.657 731.317 821.454 735.444 817.584C739.572 813.713 736.781 811.855 737.675 803.832C738.569 795.81 738.569 788.313 738.569 788.313L750.491 795.941C750.491 795.941 757.346 796.204 761.073 796.993C764.797 797.782 766.587 797.914 766.587 797.914C766.587 797.914 762.115 793.442 757.495 793.442C752.875 793.442 751.385 792.39 751.385 792.39L742.295 782L738.27 784.367C738.27 784.367 737.079 777.66 738.122 774.503C739.164 771.347 738.252 771.22 738.252 763.071C738.252 754.922 737.683 726.748 737.946 717.707C738.209 708.665 737.086 703.512 737.242 700.332C737.399 697.151 740.22 694.247 740.22 694.247C740.22 694.247 735.048 680.693 735.989 674.746C736.928 668.8 738.791 665.314 738.791 665.314L739.008 620.42L735.27 618.055L738.35 615.684L738.677 609.091L733.5 611.578C733.5 611.578 737.624 605.881 737.776 601.193C737.927 596.506 739.569 571.117 739.256 568.084C738.944 565.051 736.288 562.293 736.288 562.293L739.725 559.398L739.571 537.47L735.245 537.012C735.245 537.012 732.996 529.835 730.227 524.797C734.553 519.604 738.36 518.383 738.533 514.718C738.707 511.053 736.975 501.128 736.975 501.128L738.508 490.271L731.244 485.556L735.945 483.293L732.953 477.636C732.953 477.636 739.792 470.847 739.792 466.321C739.792 461.795 737.013 460.287 737.013 460.287C737.013 460.287 738.723 446.521 737.013 442.56C735.303 438.601 731.458 436.715 731.458 436.715L733.935 431.546L726.706 430.59L725.861 427.061C725.861 427.061 731.962 428.83 734.511 424.812C737.061 420.794 736.12 405.876 736.12 405.876L738.952 388.001C738.952 388.001 737.982 364.718 738.453 359.312C738.925 353.905 740.809 351.826 740.809 351.826L737.746 336.855L740.102 328.953L743.735 321.61L738.277 328.745L733.225 314.208L732.736 310.93C732.736 310.93 737.345 306.608 737.489 303.304C737.633 299.999 735.473 296.184 735.473 293.006C735.473 289.829 735.773 279.962 735.773 275.834C735.773 271.707 738.446 267.873 738.446 267.873L735.439 265.22L736.775 257.7L735.271 249.592L738.111 245.759C738.111 245.759 738.389 241.017 735.422 238.218C732.455 235.42 730.204 234.426 730.204 234.426C730.204 234.426 732.864 229.641 731.739 227.565C730.614 225.488 729.386 222.689 729.386 222.689L723.904 217.222L724.852 205.511L721.061 203.169C721.061 203.169 722.483 200.157 721.819 198.4C721.156 196.644 718.975 196.309 718.975 196.309C718.975 196.309 721.423 192.013 718.181 190.979C714.938 189.947 702.598 189.867 702.598 189.867C702.598 189.867 704.129 178.421 708.903 175.082C713.677 171.743 727.184 173.238 730.533 171.668C733.88 170.098 736.288 165.112 736.288 165.112H727.603C727.603 165.112 728.754 158.925 728.336 155.97C727.917 153.016 727.437 150.956 729.275 148.362C731.113 145.767 735.034 139.603 735.034 139.603C735.034 139.603 732.705 133.009 735.892 130.521C739.076 128.035 745.326 129.116 746.183 126.413C747.04 123.71 744.995 121.597 747.403 119C749.811 116.402 755.028 112.27 755.028 112.27C755.028 112.27 749.409 112.034 746.868 115.222C744.326 118.409 746.065 124.43 743.523 125.728C740.982 127.027 736.567 124.194 733.758 128.208C730.949 132.222 735.364 137.416 731.618 138.243C727.872 139.07 730.277 135.116 726.798 133.816C723.32 132.518 719.039 130.629 719.039 130.747C719.039 130.865 719.842 123.427 719.842 123.427C719.842 123.427 727.468 124.254 728.537 119.885C729.608 115.516 728.003 102.648 726.932 99.459C725.862 96.2715 728.537 90.8404 729.206 89.3052C729.875 87.77 717.151 85.9262 717.151 85.9262L721.426 80.4762L720.635 76.4233L718.735 67.7586L717.151 58.2556C717.151 58.2556 732.22 49.6495 732.404 45.9388C732.587 42.227 729.479 33.5141 721.068 33.353C712.659 33.1918 711.561 35.6123 711.561 35.6123C711.561 35.6123 716.132 43.0338 711.195 40.7755C706.259 38.5162 709.916 33.353 709.916 33.353C709.916 33.353 693.826 33.5141 688.707 33.8375C683.588 34.1598 679.374 34.0688 671.946 33.2065C664.518 32.3442 661.195 30.1016 658.458 32.3442C655.722 34.5868 658.849 39.2446 654.94 41.8314C651.03 44.4193 653.963 38.2096 648.88 33.5518C643.798 28.894 642.234 32.8612 636.175 33.2065C630.115 33.5518 629.333 33.8961 623.078 32.3442C616.823 30.7913 511.105 30.0525 497.26 31.3846C483.415 32.7178 457.013 33.7465 451.269 33.7465C445.525 33.7465 447.273 31.1021 437.783 30.8813C428.293 30.6605 419.552 31.9832 419.552 31.9832C419.552 31.9832 417.373 34.7197 414.756 33.2138C412.14 31.708 412.709 31.3061 406.793 31.507C400.879 31.708 394.167 30.7033 392.347 31.4066C390.527 32.1098 388.593 33.5141 388.82 36.2255C389.048 38.9359 391.096 41.3448 386.659 42.3494C382.223 43.353 381.506 40.7787 378.261 41.3239C375.016 41.8701 372.852 48.826 369.297 45.6887C365.742 42.5524 369.142 40.6427 369.297 37.9145C369.452 35.1864 372.851 33.0035 369.142 33.0035C365.433 33.0035 362.342 36.4139 362.342 36.4139L360.178 31.9131C360.178 31.9131 277.701 32.0794 262.68 32.79C247.658 33.4995 153.822 35.019 123.191 32.767C92.5593 30.514 59.0866 28.5215 52.1032 33.1961C45.1198 37.8717 48.0095 42.3348 48.0095 42.3348C48.0095 42.3348 43.1934 37.6592 40.0629 44.4602C36.9325 51.2601 54.5113 55.2984 54.5113 55.2984C54.5113 55.2984 49.412 96.011 47.5862 118.568C45.7605 141.126 53.0636 175.365 53.0636 175.365L55.1177 180.577L48.0607 181.466L50.077 193.566L62.7796 194.812C62.7796 194.812 58.1421 188.584 61.973 187.161C65.804 185.737 69.635 192.677 72.2562 198.371C74.8774 204.065 66.2073 208.157 66.2073 208.157L68.6269 215.097C68.6269 215.097 59.5536 214.386 56.9323 212.25C54.3111 210.115 55.7226 219.724 55.7226 219.724L63.7877 223.283L59.5536 232.713C59.5536 232.713 66.445 237.316 64.1456 241.599C61.8463 245.883 53.1597 253.323 53.1597 253.323C53.1597 253.323 50.5456 274.992 51.5665 278.396C52.5876 281.8 56.8987 284.102 56.8987 284.102C56.8987 284.102 52.1338 285.905 51.2262 290.11C50.3186 294.314 51.0604 309.267 54.1754 311.711C57.2903 314.154 60.9243 313.086 60.9243 313.086L67.5003 329.885C67.5003 329.885 59.0208 331.87 55.3867 337.674C51.7527 343.476 58.6747 345.767 58.6747 345.767L53.4832 350.807L58.8319 357.985L59.9038 367.445C59.9038 367.445 51.9717 368.769 51.7573 374.824C51.5429 380.878 60.7613 384.851 63.5483 390.148C66.3353 395.446 69.551 399.23 64.1914 402.824C58.8319 406.419 54.7586 404.527 54.7586 404.527L55.9097 418.653C55.9097 418.653 71.6462 420.602 70.2658 428.886C68.8854 437.17 52.0446 435.464 52.0446 435.464C52.0446 435.464 55.9097 475.909 54.8054 481.025C53.701 486.142 52.5734 501.895 51.7919 514.999C51.0104 528.103 52.9642 565.691 52.5734 571.899C52.1827 578.105 53.9773 585.17 53.9773 585.17L66.075 589.304C66.075 589.304 66.075 593.78 62.5627 604.801C59.0506 615.822 62.5627 624.431 62.5627 624.431C62.5627 624.431 56.7091 625.121 52.8066 634.764C48.9042 644.407 53.1969 679.535 53.1969 679.535L59.1329 683.867C59.1329 683.867 52.1906 689.758 51.3896 698.477C50.5885 707.196 54.0596 728.639 54.0596 728.639C54.0596 728.639 51.4417 752.931 51.4417 761.634C51.4417 770.337 55.2589 813.85 55.2589 813.85" fill="#F5EAD3"/>
</svg>
